<svg xmlns="http://www.w3.org/2000/svg" viewBox="0 0 80 80"><defs><style>.cls-1,.cls-3{fill:#34cd8b;}.cls-2{fill:#fff;}.cls-2,.cls-3{fill-rule:evenodd;}</style></defs><title>资源 2</title><g id="图层_2" data-name="图层 2"><g id="图层_1-2" data-name="图层 1"><circle class="cls-1" cx="40" cy="40" r="40"/><path class="cls-2" d="M51.36,43.37a14.65,14.65,0,1,1,0-20.73,14.66,14.66,0,0,1,0,20.73Z"/><path class="cls-2" d="M46.2,54.21a2.55,2.55,0,0,1-2.55,2.55h-5.3a2.55,2.55,0,0,1-2.55-2.55h0a2.55,2.55,0,0,1,2.55-2.55h5.3a2.55,2.55,0,0,1,2.55,2.55Z"/><path class="cls-2" d="M43.94,62.2a1.44,1.44,0,0,1-1.44,1.45h-3a1.44,1.44,0,0,1-1.44-1.45h0a1.44,1.44,0,0,1,1.44-1.44h3a1.44,1.44,0,0,1,1.44,1.44Z"/><path class="cls-3" d="M46.84,27.17a8.26,8.26,0,1,1-11.68,0A8.25,8.25,0,0,1,46.84,27.17Z"/><path class="cls-3" d="M50.63,24a1.93,1.93,0,1,1-2.73,0A1.94,1.94,0,0,1,50.63,24Z"/></g></g></svg>